<svg width="5812" height="2511" viewBox="0 0 5812 2511" fill="none" xmlns="http://www.w3.org/2000/svg">
<path d="M220.914 340.676L130.914 120.676H610.914L880.914 340.676V450.676H510.914L360.914 680.676L0.914307 620.676L220.914 340.676Z" stroke="black"/>
<path d="M0.914307 1160.68L70.9143 850.676L220.914 760.676H360.914H610.914L930.914 680.676L1090.91 620.676L990.914 550.676L930.914 390.676H1090.91L1630.91 450.676L2100.91 120.676L2670.91 70.6755L2810.91 0.675537L2900.91 190.676H3090.91L3270.91 340.676L3730.91 550.676L4090.91 450.676L4320.91 550.676L4790.91 250.676H5170.91L5430.91 620.676L5480.91 850.676L5810.91 930.676L5630.91 1160.68L5680.91 1770.68L5720.91 2110.68L5170.91 1950.68L4320.91 2160.68H3270.91L3090.91 2510.68V2160.68L1990.91 2400.68L1430.91 2110.68V2400.68H1090.91L830.914 2160.68L420.914 2210.68L360.914 1950.68V1730.68L130.914 1610.68V1440.68H310.914L220.914 1110.68L0.914307 1160.68Z" stroke="black"/>
</svg>
